<?xml version="1.0" encoding="UTF-8"?>
<svg width="64px" height="64px" viewBox="0 0 64 64" version="1.1" xmlns="http://www.w3.org/2000/svg" xmlns:xlink="http://www.w3.org/1999/xlink">
    <!-- Generator: Sketch 44.1 (41455) - http://www.bohemiancoding.com/sketch -->
    <title>ups</title>
    <desc>Created with Sketch.</desc>
    <defs></defs>
    <g id="Page-1" stroke="none" stroke-width="1" fill="none" fill-rule="evenodd">
        <g id="ups" fill-rule="nonzero">
            <rect id="Rectangle-377" fill="#443128" x="0" y="0" width="64" height="64" rx="5"></rect>
            <g id="UPS-logo" transform="translate(18.758621, 16.000000)">
                <g id="Group-34">
                    <path d="M12.9140694,30.5144276 C13.197999,30.3938325 20.0176681,27.4546535 22.1613313,25.7022167 C24.4031333,23.8693074 25.5870664,21.2415615 25.5870664,18.1025651 L25.5870664,3.32699293 L25.4066325,3.22981214 C19.9424398,0.29836208 13.1878546,0.48794987 12.903811,0.497611118 C12.6415379,0.48794987 5.88809253,0.29836208 0.425153609,3.22981214 L0.245289696,3.32699293 L0.245289696,18.1025651 C0.245289696,21.2415615 1.42990671,23.8693074 3.66977094,25.7022167 C5.8140041,27.4546535 12.6312795,30.3938325 12.9140694,30.5144276" id="Fill-31" fill="#443127"></path>
                    <path d="M1.024586,18.174513 C1.024586,21.0351518 2.09066153,23.4187522 4.10256135,25.0650289 C5.90997711,26.541495 11.3848842,28.9959067 12.9076864,29.6667383 C14.4323123,28.9959067 19.9077892,26.541495 21.7128114,25.0650289 C23.7294984,23.4187522 24.7937503,21.0351518 24.7937503,18.174513 L24.7937503,3.13308599 C17.1739262,2.42758754 8.15952982,2.86018414 1.024586,9.3858459 L1.024586,18.174513 L1.024586,18.174513 Z M12.9076864,30.783806 C12.9076864,30.783806 5.68611607,27.67959 3.45525643,25.8552054 C1.12272468,23.9485296 0,21.2715682 0,18.174513 L0,2.91531009 C5.70059181,-0.144464078 12.9076864,0.096157836 12.9076864,0.096157836 C12.9076864,0.096157836 20.1178584,-0.144464078 25.82016,2.91531009 L25.82016,18.174513 C25.82016,21.2715682 24.6962955,23.9485296 22.3637637,25.8552054 C20.1329041,27.67959 12.9076864,30.783806 12.9076864,30.783806 L12.9076864,30.783806 Z" id="Fill-33" fill="#F3B729"></path>
                </g>
                <path d="M20.1959362,16.0605182 C21.1977258,16.6472401 21.6014508,17.0342584 21.6176362,17.7469175 C21.6368992,18.5389125 21.0881889,19.0158372 20.2531553,19.0123137 C19.5262908,19.0068579 18.6582024,18.604268 18.0757533,18.0883574 L18.0757533,20.1797335 C18.7892819,20.6027825 19.6791409,20.883527 20.5785745,20.883527 C22.829381,20.883527 23.8334502,19.297832 23.8780173,17.8465988 C23.9201907,16.5224395 23.5524841,15.5199429 21.6501212,14.4058305 C20.8000419,13.909015 20.1298266,13.5821238 20.152623,12.75478 C20.1742796,11.9490319 20.8468886,11.6652185 21.4906601,11.6712426 C22.2872817,11.6784033 23.0562056,12.1188425 23.5315114,12.6047465 L23.5315114,10.62976 C23.1307499,10.3231006 22.2830643,9.85401862 21.0327936,9.89175432 C19.5341556,9.93619606 17.9680401,11.0166646 17.9782985,12.8512788 C17.981946,14.0584802 18.3194473,14.9625457 20.1959362,16.0605182" id="Fill-35" fill="#F3B729"></path>
                <path d="M12.4592804,11.8842447 C12.6446154,11.7929743 12.9574966,11.7204581 13.2660464,11.7204581 C14.5873281,11.7204581 15.1342147,12.7727386 15.1342147,15.3166021 C15.1342147,17.7979516 14.5084524,18.9966284 13.198113,18.9966284 C12.8918428,18.9966284 12.6223889,18.9210433 12.4592804,18.8598933 L12.4592804,11.8842447 L12.4592804,11.8842447 Z M12.4592804,20.7167852 C12.6866749,20.782709 13.0164254,20.8451093 13.4838664,20.8451093 C16.0107378,20.8451093 17.4619592,18.5749433 17.4619592,15.2584073 C17.4619592,11.9490319 15.9681085,9.89175432 13.2504308,9.89175432 C12.0092787,9.89175432 11.0069192,10.1689753 10.1832838,10.6998893 L10.1832838,25.4966026 L12.4592804,25.4966026 L12.4592804,20.7167852 L12.4592804,20.7167852 Z" id="Fill-36" fill="#F3B729"></path>
                <path d="M5.58239226,20.883527 C6.97639458,20.883527 8.14425621,20.5625462 9.01359845,19.9709369 L9.01359845,10.122715 L6.74056541,10.122715 L6.74056541,18.6798531 C6.4927681,18.8496637 6.12574542,18.9576424 5.66309166,18.9576424 C4.61981258,18.9576424 4.46399891,18.0031111 4.46399891,17.3600129 L4.46399891,10.122715 L2.18800233,10.122715 L2.18800233,17.2586266 C2.18800233,19.6650731 3.33044592,20.883527 5.58239226,20.883527" id="Fill-37" fill="#F3B729"></path>
            </g>
        </g>
    </g>
</svg>